<svg version="1.1" xmlns="http://www.w3.org/2000/svg" xmlns:xlink="http://www.w3.org/1999/xlink" width="512.000000pt" height="512.000000pt" viewBox="0,0,256,256"><g fill="#ffffff" fill-rule="nonzero" stroke="none" stroke-width="1" stroke-linecap="butt" stroke-linejoin="miter" stroke-miterlimit="10" stroke-dasharray="" stroke-dashoffset="0" font-family="none" font-weight="none" font-size="none" text-anchor="none" style="mix-blend-mode: normal"><g transform="translate(-0.175,-0.01394) scale(0.5,0.5)"><g transform="translate(0,512) scale(0.1,-0.1)"><path d="M1227,5104c-190,-34 -371,-129 -512,-269c-201,-199 -298,-428 -298,-705c0,-277 97,-506 298,-705c290,-288 726,-365 1100,-196l60,28l473,-580l472,-579v-899v-899h-295h-295v-150v-150h745h745v150v150h-300h-300v894v894l795,974l794,973l1,147v148l-545,2l-545,3l185,225c101,124 185,228 185,232c0,6 -190,166 -217,181c-8,5 -106,-108 -278,-318l-266,-325h-428h-427l-17,68c-26,100 -106,255 -181,349c-225,283 -593,421 -949,357zM1532,4806c40,-8 97,-24 126,-35c147,-58 294,-194 362,-336c22,-45 40,-87 40,-93c0,-9 -102,-12 -410,-12h-410v-147v-148l215,-263c118,-145 215,-268 215,-273c0,-4 -33,-19 -72,-31c-105,-33 -282,-33 -388,0c-193,60 -341,187 -426,367c-48,101 -67,185 -67,295c0,433 391,757 815,676zM2527,3988c-155,-269 -83,-585 161,-705c66,-33 85,-38 166,-41c64,-3 111,1 156,12c226,58 414,250 475,486c17,66 17,233 0,273c-7,16 16,17 410,17c330,0 415,-3 409,-12c-32,-52 -1327,-1627 -1335,-1623c-11,8 -1329,1623 -1329,1630c0,3 205,5 456,5h456zM3125,4016c55,-23 77,-68 73,-151c-2,-53 -10,-84 -32,-128c-73,-144 -252,-236 -356,-182c-122,63 -55,327 107,422c91,53 148,64 208,39z"></path></g></g></g></svg>