<?xml version="1.0" standalone="no"?>
<!DOCTYPE svg PUBLIC "-//W3C//DTD SVG 20010904//EN"
 "http://www.w3.org/TR/2001/REC-SVG-20010904/DTD/svg10.dtd">
<svg version="1.0" xmlns="http://www.w3.org/2000/svg"
 width="512.000000pt" height="512.000000pt" viewBox="0 0 512.000000 512.000000"
 preserveAspectRatio="xMidYMid meet">

<g transform="translate(0.000000,512.000000) scale(0.100000,-0.100000)"
fill="#000000" stroke="none">
<path d="M1227 5104 c-190 -34 -371 -129 -512 -269 -201 -199 -298 -428 -298
-705 0 -277 97 -506 298 -705 290 -288 726 -365 1100 -196 l60 28 473 -580
472 -579 0 -899 0 -899 -295 0 -295 0 0 -150 0 -150 745 0 745 0 0 150 0 150
-300 0 -300 0 0 894 0 894 795 974 794 973 1 147 0 148 -545 2 -545 3 185 225
c101 124 185 228 185 232 0 6 -190 166 -217 181 -8 5 -106 -108 -278 -318
l-266 -325 -428 0 -427 0 -17 68 c-26 100 -106 255 -181 349 -225 283 -593
421 -949 357z m305 -298 c40 -8 97 -24 126 -35 147 -58 294 -194 362 -336 22
-45 40 -87 40 -93 0 -9 -102 -12 -410 -12 l-410 0 0 -147 0 -148 215 -263
c118 -145 215 -268 215 -273 0 -4 -33 -19 -72 -31 -105 -33 -282 -33 -388 0
-193 60 -341 187 -426 367 -48 101 -67 185 -67 295 0 433 391 757 815 676z
m995 -818 c-155 -269 -83 -585 161 -705 66 -33 85 -38 166 -41 64 -3 111 1
156 12 226 58 414 250 475 486 17 66 17 233 0 273 -7 16 16 17 410 17 330 0
415 -3 409 -12 -32 -52 -1327 -1627 -1335 -1623 -11 8 -1329 1623 -1329 1630
0 3 205 5 456 5 l456 0 -25 -42z m598 28 c55 -23 77 -68 73 -151 -2 -53 -10
-84 -32 -128 -73 -144 -252 -236 -356 -182 -122 63 -55 327 107 422 91 53 148
64 208 39z"/>
</g>
</svg>
